<svg width="28" height="30" viewBox="0 0 28 30" fill="none" xmlns="http://www.w3.org/2000/svg">
<path fill-rule="evenodd" clip-rule="evenodd" d="M14.0059 0C17.5587 0 20.4556 2.92419 20.4943 6.5319L20.809 6.53339C24.775 6.53339 28 9.8111 28 13.8407V21.8941C28 25.9223 24.775 29.2 20.809 29.2H7.19097C3.22646 29.2 0 25.9223 0 21.8941V13.8407C0 9.8111 3.22646 6.53339 7.19097 6.53339L7.4839 6.53207L7.493 6.24813C7.58318 4.59181 8.25406 3.07234 9.40527 1.91407C10.6373 0.671604 12.2914 0.0511003 14.0059 0ZM20.809 8.7234L20.4946 8.72208L20.4947 11.0318C20.4947 11.6363 20.0122 12.1268 19.4178 12.1268C18.8233 12.1268 18.3409 11.6363 18.3409 11.0318L18.3407 8.72208H9.63631L9.63645 11.0318C9.63645 11.6363 9.15399 12.1268 8.55953 12.1268C7.96507 12.1268 7.4826 11.6363 7.4826 11.0318L7.48246 8.72208L7.19097 8.7234C4.41395 8.7234 2.15385 11.0185 2.15385 13.8407V21.8941C2.15385 24.7149 4.41395 27.01 7.19097 27.01H20.809C23.5861 27.01 25.8462 24.7149 25.8462 21.8941V13.8407C25.8462 11.0185 23.5861 8.7234 20.809 8.7234ZM14.0016 2.19001C12.8371 2.23089 11.7458 2.63969 10.9216 3.46898C10.1093 4.28767 9.65409 5.37293 9.63692 6.53193L18.3378 6.53207L18.3335 6.34611C18.2013 4.03225 16.3097 2.19001 14.0016 2.19001Z" fill="#191A17"/>
</svg>
