<svg width="185" height="185" viewBox="0 0 185 185" fill="none" xmlns="http://www.w3.org/2000/svg">
<circle cx="92.1" cy="92.6645" r="92.1" fill="#FFFAF6"/>
<path d="M42.0457 126.709V67.4822H135.822V126.709C135.822 132.161 131.402 136.58 125.951 136.58H51.9168C46.4655 136.58 42.0457 132.161 42.0457 126.709Z" fill="#FFB077"/>
<path d="M135.822 57.6109V72.4177H42.0457V57.6109C42.0457 52.1596 46.4655 47.7397 51.9168 47.7397H125.951C131.402 47.7397 135.822 52.1596 135.822 57.6109Z" fill="#EA9355"/>
<path opacity="0.1" d="M118.547 57.6111C118.547 61.6978 115.233 65.0145 111.144 65.0145C107.055 65.0145 103.741 61.6978 103.741 57.6111C103.741 53.5245 107.055 50.2078 111.144 50.2078C115.233 50.2078 118.547 53.5245 118.547 57.6111ZM74.127 57.6111C74.127 61.6978 70.8127 65.0145 66.7236 65.0145C62.6345 65.0145 59.3202 61.6978 59.3202 57.6111C59.3202 53.5245 62.6345 50.2078 66.7236 50.2078C70.8127 50.2078 74.127 53.5245 74.127 57.6111Z" fill="#191A17"/>
<path d="M111.144 40.3364C108.417 40.3364 106.208 42.55 106.208 45.272V57.611C106.208 60.3354 108.417 62.5466 111.144 62.5466C113.866 62.5466 116.08 60.3354 116.08 57.611V45.272C116.08 42.55 113.866 40.3364 111.144 40.3364ZM66.7236 40.3364C63.9967 40.3364 61.788 42.55 61.788 45.272V57.611C61.788 60.3354 63.9967 62.5466 66.7236 62.5466C69.4456 62.5466 71.6592 60.3354 71.6592 57.611V45.272C71.6592 42.55 69.4456 40.3364 66.7236 40.3364Z" fill="#FFB077"/>
<path opacity="0.6" d="M61.788 82.2888H71.6592V92.16H61.788V82.2888ZM76.5948 82.2888H86.466V92.16H76.5948V82.2888ZM91.4016 82.2888H101.273V92.16H91.4016V82.2888ZM106.208 82.2888H116.08V92.16H106.208V82.2888ZM61.788 97.0956H71.6592V106.967H61.788V97.0956ZM76.5948 97.0956H86.466V106.967H76.5948V97.0956ZM91.4016 97.0956H101.273V106.967H91.4016V97.0956ZM106.208 97.0956H116.08V106.967H106.208V97.0956ZM61.788 111.902H71.6592V121.774H61.788V111.902ZM76.5948 111.902H86.466V121.774H76.5948V111.902ZM91.4016 111.902H101.273V121.774H91.4016V111.902ZM106.208 111.902H116.08V121.774H106.208V111.902Z" fill="white"/>
<path d="M148.161 124.241C148.161 137.871 137.11 148.919 123.483 148.919C109.853 148.919 98.805 137.871 98.805 124.241C98.805 110.612 109.853 99.5635 123.483 99.5635C137.11 99.5635 148.161 110.612 148.161 124.241Z" fill="#95D577"/>
<path d="M118.547 109.435H128.418V139.048H118.547V109.435Z" fill="white"/>
<path d="M108.676 119.306H138.29V129.177H108.676V119.306Z" fill="white"/>
</svg>
