<svg width="185" height="185" viewBox="0 0 185 185" fill="none" xmlns="http://www.w3.org/2000/svg">
<circle cx="92.1" cy="92.6645" r="92.1" fill="#FFFAF6"/>
<path d="M148.007 47.914C147.555 45.8625 145.866 44.1726 143.814 43.7214C141.023 43.1076 138.498 44.579 137.452 46.8658C136.875 46.5688 136.23 46.3838 135.535 46.3838C133.98 46.3838 132.621 47.2302 131.895 48.4857C131.766 48.7071 122.924 63.1991 122.924 63.1991L128.529 68.8041C128.529 68.8041 143.021 59.9621 143.242 59.8332C144.498 59.1073 145.344 57.7481 145.344 56.1927C145.344 55.4977 145.159 54.8531 144.862 54.2758C147.149 53.2304 148.62 50.7053 148.007 47.914Z" fill="#95D577"/>
<path d="M131.385 63.1459C128.602 60.3602 122.56 54.7915 116.072 54.7915C111.728 54.7915 107.9 57.0027 105.652 60.3602C104.318 62.35 74.3054 111.874 78.4812 116.049C82.657 120.225 132.178 90.2128 134.171 88.8788C137.528 86.6312 139.739 82.8029 139.739 78.459C139.739 71.9711 134.171 65.9288 131.385 63.1459Z" fill="#F49958"/>
<path opacity="0.25" d="M122.924 74.4096C122.206 74.4096 121.489 74.135 120.943 73.5885L115.337 67.9834C114.242 66.8876 114.242 65.1164 115.337 64.0206C116.433 62.9248 118.204 62.9248 119.3 64.0206L124.905 69.6257C126.001 70.7215 126.001 72.4927 124.905 73.5885C124.359 74.135 123.641 74.4096 122.924 74.4096ZM122.924 91.2249C122.206 91.2249 121.489 90.9502 120.943 90.4037L112.535 81.9961C111.439 80.9003 111.439 79.1291 112.535 78.0333C113.631 76.9375 115.402 76.9375 116.498 78.0333L124.905 86.4409C126.001 87.5367 126.001 89.3079 124.905 90.4037C124.359 90.9502 123.641 91.2249 122.924 91.2249Z" fill="white"/>
<path d="M72.4782 57.594V49.1864C72.4782 46.0896 74.9865 43.5813 78.0833 43.5813" stroke="#64A646" stroke-width="4" stroke-miterlimit="10" stroke-linecap="round"/>
<path d="M103.306 68.9162C103.306 71.6347 103.306 91.2245 94.8985 108.04C92.4884 112.832 84.8094 115.747 83.0998 116.335C82.8756 116.419 82.7635 116.447 82.7635 116.447H62.1929C62.1929 116.447 62.0808 116.419 61.8566 116.335C60.147 115.747 52.4681 112.832 50.0579 108.04C41.6502 91.2245 41.6502 71.6347 41.6502 68.9162C41.6502 64.264 44.2286 60.3965 49.3572 60.3965H49.6375C49.8337 60.3965 50.0579 60.3965 50.254 60.4245C55.3547 60.7048 62.1929 63.199 62.1929 63.199H82.7635C82.7635 63.199 89.6017 60.7048 94.7024 60.4245C94.8985 60.3965 95.1227 60.3965 95.3189 60.3965H95.5992C100.728 60.3965 103.306 64.264 103.306 68.9162Z" fill="#95D577"/>
<path opacity="0.1" d="M62.2209 116.448H82.7355C85.3699 113.673 87.4718 110.254 88.5928 107.059C93.5813 92.5419 94.8985 72.6439 94.8985 63.1993C94.8985 62.2184 94.8425 61.2936 94.7024 60.4248C89.6017 60.7051 82.7635 63.1993 82.7635 63.1993H62.1929C62.1929 63.1993 55.3547 60.7051 50.254 60.4248C50.1139 61.2936 50.0579 62.2184 50.0579 63.1993C50.0579 72.6439 51.3751 92.5419 56.3636 107.059C57.4846 110.254 59.5865 113.673 62.2209 116.448Z" fill="#191A17"/>
<path d="M82.0517 54.7915C78.0833 54.7915 76.8698 57.594 72.4782 57.594C68.0866 57.594 66.8731 54.7915 62.9047 54.7915C58.0759 54.7915 55.6629 57.594 55.6629 63.1991C55.6629 71.6068 56.8652 91.2246 61.6688 105.237C63.6642 111.055 69.3982 116.355 72.4782 116.447C75.5582 116.355 81.2922 111.055 83.2876 105.237C88.0912 91.2246 89.2934 71.6068 89.2934 63.1991C89.2934 57.594 86.8805 54.7915 82.0517 54.7915Z" fill="#95D577"/>
<path d="M142.542 91.2246L142.556 100.437C142.556 117.826 130.978 134.532 114.18 141.67C101.569 141.67 82.6514 141.67 70.04 141.67C53.2444 134.532 41.6643 117.824 41.6643 100.437L41.6502 94.0272" fill="#FFB077"/>
<path d="M142.556 96.8296C145.653 96.8296 148.161 94.3213 148.161 91.2245C148.161 88.1277 145.653 85.6194 142.556 85.6194H41.6643C38.5674 85.6194 36.0592 88.1277 36.0592 91.2245C36.0592 94.3213 38.5674 96.8296 41.6643 96.8296H142.556Z" fill="#FFCEAA"/>
</svg>
