<svg width="66" height="61" viewBox="0 0 66 61" fill="none" xmlns="http://www.w3.org/2000/svg">
<path d="M31.6304 30.9809C33.6901 19.6423 28.4163 9.25624 19.753 7.67039C11.0896 6.08453 2.50512 13.9338 0.445454 25.2724C-1.61421 36.6109 3.65957 46.997 12.3212 48.5825C20.9829 50.1681 29.5708 42.3194 31.6304 30.9809Z" fill="#FFB077"/>
<path d="M10.8403 27.1765C10.9676 26.4756 13.7781 12.9797 24.739 9.79127C23.8999 9.15491 22.9232 8.61406 21.9057 8.30713C15.4299 11.1079 10.5136 16.4873 9.13086 25.4135C8.21517 31.7684 9.71828 36.6332 11.8007 40.2747C10.4766 36.4099 9.99096 31.852 10.8403 27.1765Z" fill="#FFCAA4"/>
<path d="M18.6616 13.0263C18.062 13.0372 17.369 12.9103 16.676 12.7835C14.597 12.4029 12.3719 11.5128 10.338 9.56982C9.53895 10.027 8.83298 10.6237 8.12903 11.2189C10.4764 14.0641 13.1505 15.7623 15.4198 16.4191C16.3677 15.1426 17.4088 14.0056 18.6616 13.0263Z" fill="#FFCAA4"/>
<path d="M24.2932 12.2451C24.2932 12.2451 24.2892 -1.52461 5.01086 0.139544C10.1229 17.9858 24.2932 12.2451 24.2932 12.2451Z" fill="#95D577"/>
<path d="M22.2013 12.588C20.6318 9.40238 18.011 6.74849 15.0319 4.75314C13.5423 3.75632 11.9153 2.85329 10.2685 2.06909C8.5071 1.26391 6.8374 0.596199 5.01062 0.141113C6.87984 0.362592 8.6854 0.934482 10.3746 1.48507C12.1802 2.05696 13.8269 2.84116 15.5685 3.76518C17.1958 4.66649 18.7998 5.68601 20.2259 7.03324C21.6731 8.26367 23.0564 9.84622 24.0712 11.482L22.2013 12.588Z" fill="#4F9030"/>
<path d="M24.3145 12.1273C23.6215 12.0005 23.2444 11.4487 23.372 10.7461C23.8815 7.94115 21.3754 5.30824 21.2608 5.28726C20.7478 4.83129 20.7587 4.10917 21.2125 3.58702C21.6642 3.06627 22.3801 3.07664 22.8931 3.53261C23.0817 3.8085 26.427 7.07776 25.6837 11.1693C25.5544 11.8715 25.0075 12.2542 24.3145 12.1273Z" fill="#B38847"/>
<path d="M42.0253 32.8841C44.085 21.5456 38.8112 11.1595 30.1479 9.57364C21.4862 7.9881 12.9 15.8371 10.8404 27.1756C8.78069 38.5141 14.0545 48.9003 22.7161 50.4858C31.3795 52.0716 39.9657 44.2227 42.0253 32.8841Z" fill="#FFB077"/>
<path d="M61.8845 47.1181C62.7865 39.3929 55.93 32.3455 46.6712 31.2561C37.4124 30.1667 29.1183 35.4314 28.2163 43.1566C27.3143 50.8819 34.1708 57.9292 43.4296 59.0187C52.6884 60.1081 60.9825 54.8434 61.8845 47.1181Z" fill="#95D577"/>
<path d="M61.8141 47.7221C62.9416 38.0655 56.0088 34.8025 55.652 27.4186C55.4661 22.7469 52.9111 18.5306 48.2216 17.9788C43.5321 17.427 40.075 20.9359 38.8179 25.4379C36.7699 32.5388 29.2734 34.104 28.1459 43.7606" fill="#95D577"/>
<path d="M52.6745 11.1603C52.6745 11.1603 48.6444 14.357 47.9397 20.3924Z" fill="white"/>
<path d="M49.1421 20.5339L46.7373 20.251C47.4983 13.7328 51.7971 10.323 51.9315 10.2164L53.4176 12.1044C53.4176 12.1044 49.7764 15.1022 49.1421 20.5339Z" fill="#B28847"/>
<path d="M61.9259 44.6763C61.4489 37.2783 55.9872 33.9436 55.652 27.4188C55.4877 23.6062 53.8241 20.1066 50.7044 18.6382C53.0181 20.7459 53.1767 27.7394 52.6834 31.9641C52.1196 36.7924 56.6475 39.7724 56.0837 44.6007C55.52 49.429 50.0056 54.8984 42.7909 54.0495C29.4439 52.479 28.3722 43.9098 28.2727 42.6744C28.2586 42.7951 28.2445 42.9158 28.2163 43.1572C28.2022 43.2779 28.2022 43.2779 28.1881 43.3986C28.174 43.5193 28.1599 43.64 28.1458 43.7608C27.6468 51.1663 34.2911 57.944 43.4296 59.0192C52.5681 60.0945 60.4733 55.0288 61.8141 47.7222C61.8281 47.6015 61.8422 47.4808 61.8563 47.3601C61.8704 47.2394 61.8704 47.2394 61.8845 47.1187C61.9832 46.2738 61.9475 45.5354 61.9259 44.6763Z" fill="#95D577"/>
</svg>
