<svg width="212" height="32" viewBox="0 0 212 32" fill="none" xmlns="http://www.w3.org/2000/svg">
<circle cx="15.6397" cy="15.8815" r="14.4481" stroke="#FFB077" stroke-width="2.38288"/>
<path d="M18.2081 9.30508C18.5976 11.3834 18.1787 14.104 15.6396 17.3093C13.1005 14.104 12.6815 11.3834 13.0711 9.30508C13.4373 7.35166 14.548 5.79903 15.6396 4.81477C16.7312 5.79903 17.8419 7.35166 18.2081 9.30508Z" stroke="#FFB077" stroke-width="2.38288"/>
<path d="M5.99254 20.5795C7.18669 22.3245 9.40669 23.9521 13.4686 24.4231C12.9975 20.3613 11.37 18.1413 9.62491 16.9471C7.98473 15.8247 6.10145 15.5123 4.63359 15.5882C4.55769 17.056 4.87017 18.9393 5.99254 20.5795Z" stroke="#FFB077" stroke-width="2.38288"/>
<path d="M25.2866 20.5795C24.0925 22.3245 21.8725 23.9521 17.8106 24.4231C18.2817 20.3613 19.9092 18.1413 21.6543 16.9471C23.2944 15.8247 25.1777 15.5123 26.6456 15.5882C26.7215 17.056 26.409 18.9393 25.2866 20.5795Z" stroke="#FFB077" stroke-width="2.38288"/>
<path d="M42.5249 26.3816V6.11898H44.8406L45.8537 9.93993V26.3816H42.5249ZM56.564 26.3816L44.4354 10.5478L44.8406 6.11898L56.9692 21.9528L56.564 26.3816ZM56.564 26.3816L55.5509 22.8212V6.11898H58.8797V26.3816H56.564ZM68.542 26.6711C67.3648 26.6711 66.3131 26.4105 65.3868 25.8895C64.4798 25.3685 63.7658 24.6544 63.2448 23.7475C62.743 22.8212 62.4922 21.7598 62.4922 20.5633V12.4872H65.6763V20.4186C65.6763 21.094 65.7824 21.6729 65.9947 22.1554C66.2263 22.6185 66.5543 22.9755 66.9789 23.2264C67.4227 23.4773 67.9438 23.6027 68.542 23.6027C69.4683 23.6027 70.1727 23.3326 70.6551 22.7922C71.1568 22.2326 71.4077 21.4414 71.4077 20.4186V12.4872H74.5918V20.5633C74.5918 21.7791 74.3313 22.8501 73.8103 23.7764C73.3085 24.6834 72.6042 25.3974 71.6972 25.9184C70.7902 26.4202 69.7385 26.6711 68.542 26.6711ZM79.9065 26.3816V6.69791H83.0906V26.3816H79.9065ZM76.5776 15.3819V12.4872H86.4195V15.3819H76.5776ZM88.7331 26.3816V12.4872H91.9173V26.3816H88.7331ZM91.9173 18.6529L90.8173 18.1029C90.8173 16.3468 91.2033 14.9284 91.9752 13.8477C92.7664 12.7477 93.9532 12.1978 95.5356 12.1978C96.2303 12.1978 96.8575 12.3232 97.4171 12.5741C97.9768 12.8249 98.4978 13.2302 98.9802 13.7898L96.8961 15.9319C96.6452 15.6617 96.3654 15.4687 96.0566 15.3529C95.7479 15.2372 95.3909 15.1793 94.9856 15.1793C94.0979 15.1793 93.3646 15.4591 92.7857 16.0187C92.2067 16.5783 91.9173 17.4564 91.9173 18.6529ZM100.55 26.3816V12.4872H103.734V26.3816H100.55ZM102.142 9.93993C101.602 9.93993 101.148 9.7566 100.781 9.38994C100.434 9.02329 100.26 8.56979 100.26 8.02945C100.26 7.48912 100.434 7.03562 100.781 6.66896C101.148 6.30231 101.602 6.11898 102.142 6.11898C102.702 6.11898 103.155 6.30231 103.502 6.66896C103.85 7.03562 104.024 7.48912 104.024 8.02945C104.024 8.56979 103.85 9.02329 103.502 9.38994C103.155 9.7566 102.702 9.93993 102.142 9.93993ZM109.418 26.3816V6.69791H112.603V26.3816H109.418ZM106.09 15.3819V12.4872H115.931V15.3819H106.09ZM118.274 26.3816V12.4872H121.458V26.3816H118.274ZM119.866 9.93993C119.326 9.93993 118.872 9.7566 118.506 9.38994C118.158 9.02329 117.985 8.56979 117.985 8.02945C117.985 7.48912 118.158 7.03562 118.506 6.66896C118.872 6.30231 119.326 6.11898 119.866 6.11898C120.426 6.11898 120.879 6.30231 121.227 6.66896C121.574 7.03562 121.748 7.48912 121.748 8.02945C121.748 8.56979 121.574 9.02329 121.227 9.38994C120.879 9.7566 120.426 9.93993 119.866 9.93993ZM131.398 26.6711C130.047 26.6711 128.821 26.3526 127.721 25.7158C126.622 25.0597 125.743 24.1817 125.087 23.0817C124.451 21.9817 124.132 20.7563 124.132 19.4055C124.132 18.0546 124.451 16.8389 125.087 15.7582C125.743 14.6775 126.622 13.8188 127.721 13.1819C128.821 12.5258 130.047 12.1978 131.398 12.1978C132.768 12.1978 134.003 12.5162 135.103 13.153C136.203 13.7898 137.071 14.6582 137.708 15.7582C138.364 16.8389 138.692 18.0546 138.692 19.4055C138.692 20.7563 138.364 21.9817 137.708 23.0817C137.071 24.1817 136.203 25.0597 135.103 25.7158C134.003 26.3526 132.768 26.6711 131.398 26.6711ZM131.398 23.6027C132.189 23.6027 132.884 23.429 133.482 23.0817C134.099 22.715 134.572 22.2133 134.9 21.5765C135.248 20.9396 135.421 20.216 135.421 19.4055C135.421 18.595 135.248 17.8809 134.9 17.2634C134.553 16.6459 134.08 16.1634 133.482 15.8161C132.884 15.4494 132.189 15.2661 131.398 15.2661C130.626 15.2661 129.931 15.4494 129.314 15.8161C128.715 16.1634 128.243 16.6459 127.895 17.2634C127.567 17.8809 127.403 18.595 127.403 19.4055C127.403 20.216 127.567 20.9396 127.895 21.5765C128.243 22.2133 128.715 22.715 129.314 23.0817C129.931 23.429 130.626 23.6027 131.398 23.6027ZM150.864 26.3816V18.3634C150.864 17.4371 150.564 16.6748 149.966 16.0766C149.387 15.4784 148.635 15.1793 147.708 15.1793C147.091 15.1793 146.541 15.3143 146.058 15.5845C145.576 15.8547 145.2 16.231 144.93 16.7134C144.659 17.1959 144.524 17.7459 144.524 18.3634L143.28 17.6687C143.28 16.6073 143.511 15.6714 143.974 14.8608C144.437 14.031 145.074 13.3846 145.885 12.9214C146.715 12.439 147.641 12.1978 148.664 12.1978C149.706 12.1978 150.632 12.4679 151.443 13.0083C152.253 13.5293 152.89 14.2144 153.353 15.0635C153.816 15.8933 154.048 16.7617 154.048 17.6687V26.3816H150.864ZM141.34 26.3816V12.4872H144.524V26.3816H141.34ZM157.312 26.3816V12.4872H160.496V26.3816H157.312ZM158.904 9.93993C158.364 9.93993 157.911 9.7566 157.544 9.38994C157.197 9.02329 157.023 8.56979 157.023 8.02945C157.023 7.48912 157.197 7.03562 157.544 6.66896C157.911 6.30231 158.364 6.11898 158.904 6.11898C159.464 6.11898 159.918 6.30231 160.265 6.66896C160.612 7.03562 160.786 7.48912 160.786 8.02945C160.786 8.56979 160.612 9.02329 160.265 9.38994C159.918 9.7566 159.464 9.93993 158.904 9.93993ZM168.612 26.6711C167.84 26.6711 167.098 26.5746 166.384 26.3816C165.669 26.1693 165.013 25.8799 164.415 25.5132C163.817 25.1272 163.296 24.6641 162.852 24.1238L164.878 22.0975C165.361 22.6571 165.911 23.0817 166.528 23.3711C167.165 23.6413 167.879 23.7764 168.67 23.7764C169.384 23.7764 169.925 23.6703 170.291 23.458C170.658 23.2457 170.841 22.9369 170.841 22.5317C170.841 22.1071 170.668 21.7791 170.32 21.5475C169.973 21.3159 169.519 21.123 168.96 20.9686C168.419 20.7949 167.84 20.6212 167.223 20.4475C166.625 20.2739 166.046 20.0423 165.486 19.7528C164.946 19.4441 164.502 19.0292 164.155 18.5081C163.807 17.9871 163.634 17.3117 163.634 16.4819C163.634 15.5942 163.836 14.8319 164.241 14.1951C164.666 13.5583 165.255 13.0662 166.007 12.7188C166.779 12.3714 167.696 12.1978 168.757 12.1978C169.876 12.1978 170.861 12.4004 171.71 12.8056C172.578 13.1916 173.302 13.7802 173.881 14.5714L171.854 16.5976C171.449 16.0959 170.986 15.7196 170.465 15.4687C169.944 15.2179 169.346 15.0924 168.67 15.0924C168.033 15.0924 167.541 15.1889 167.194 15.3819C166.847 15.5749 166.673 15.8547 166.673 16.2213C166.673 16.6073 166.847 16.9064 167.194 17.1187C167.541 17.331 167.985 17.5143 168.526 17.6687C169.085 17.823 169.664 17.9967 170.262 18.1897C170.88 18.3634 171.459 18.6143 171.999 18.9423C172.559 19.2511 173.012 19.6756 173.36 20.216C173.707 20.737 173.881 21.4221 173.881 22.2712C173.881 23.622 173.408 24.693 172.462 25.4842C171.517 26.2755 170.233 26.6711 168.612 26.6711ZM178.619 26.3816V6.69791H181.803V26.3816H178.619ZM175.29 15.3819V12.4872H185.132V15.3819H175.29ZM207.106 26.3816L201.143 17.3503H200.535L192.517 6.11898H196.454L202.446 14.6293H203.053L210.985 26.3816H207.106ZM192.169 26.3816L199.869 15.5556L202.156 17.495L195.904 26.3816H192.169ZM203.285 16.6845L200.998 14.7451L206.903 6.11898H210.637L203.285 16.6845Z" fill="#191A17"/>
</svg>
