<svg width="66" height="78" viewBox="0 0 66 78" fill="none" xmlns="http://www.w3.org/2000/svg">
<path d="M44.9263 6.08789H28.8812C28.8812 7.76816 27.4436 9.13186 25.6722 9.13186C23.9008 9.13186 22.4632 7.76816 22.4632 6.08789H6.41804C2.87368 6.08789 0 8.81376 0 12.1758V60.8793C0 64.2413 2.87368 66.9672 6.41804 66.9672H44.9263C48.4707 66.9672 51.3444 64.2413 51.3444 60.8793V12.1758C51.3444 8.81376 48.4707 6.08789 44.9263 6.08789Z" fill="#FFB077"/>
<path d="M28.8812 6.08789C28.8812 7.76968 27.4452 9.13186 25.6722 9.13186C23.8992 9.13186 22.4632 7.76968 22.4632 6.08789H11.2316V12.1758C11.2316 13.8576 12.6677 15.2198 14.4407 15.2198H36.9038C38.6768 15.2198 40.1128 13.8576 40.1128 12.1758V6.08789H28.8812Z" fill="#E7965C"/>
<path d="M25.6723 0C22.1327 0 19.2542 2.73044 19.2542 6.08793C19.2542 9.44542 22.1327 12.1759 25.6723 12.1759C29.2118 12.1759 32.0903 9.44542 32.0903 6.08793C32.0903 2.73044 29.2118 0 25.6723 0ZM25.6723 9.13189C23.9009 9.13189 22.4632 7.7682 22.4632 6.08793C22.4632 4.40766 23.9009 3.04396 25.6723 3.04396C27.4436 3.04396 28.8813 4.40766 28.8813 6.08793C28.8813 7.7682 27.4436 9.13189 25.6723 9.13189Z" fill="#E7965C"/>
<path opacity="0.5" d="M31.377 28.2704H43.2786V31.6293H31.377V28.2704ZM31.377 21.5527H43.2786V24.9116H31.377V21.5527ZM31.377 34.9881H43.2786V38.347H31.377V34.9881ZM7.57373 41.7058H43.2786V45.0647H7.57373V41.7058ZM7.57373 48.4235H43.2786V51.7824H7.57373V48.4235ZM7.57373 55.1413H43.2786V58.5001H7.57373V55.1413Z" fill="white"/>
<path d="M7.57373 26.6846H23.8032V31.8161H7.57373V26.6846Z" fill="white"/>
<path d="M12.9836 21.5527H18.3934V36.9475H12.9836V21.5527Z" fill="white"/>
<path d="M66 61.5788C66 70.6473 58.2488 77.9998 48.6886 77.9998C39.1283 77.9998 31.3771 70.6473 31.3771 61.5788C31.3771 52.5102 39.1283 45.1577 48.6886 45.1577C58.2488 45.1577 66 52.5102 66 61.5788Z" fill="#95D577"/>
<path d="M57.8653 53.8628L46.0918 65.0266L41.2428 60.4304L38.8218 62.7269L46.0918 69.6262L60.2855 56.1593L57.8653 53.8628Z" fill="white"/>
</svg>
