<svg width="185" height="185" viewBox="0 0 185 185" fill="none" xmlns="http://www.w3.org/2000/svg">
<circle cx="92.1" cy="92.6259" r="92.1" fill="#FFFAF6"/>
<path d="M41.0446 53.6947C41.0446 47.5519 46.025 42.5715 52.1678 42.5715H130.03C136.173 42.5715 141.153 47.5519 141.153 53.6947V131.557C141.153 137.7 136.173 142.68 130.03 142.68H52.1678C46.025 142.68 41.0446 137.7 41.0446 131.557V53.6947Z" fill="#95D577"/>
<path d="M113.735 92.6258L132.811 69.1781C108.707 48.5363 73.4909 48.5307 49.387 69.1698L68.4744 92.6258H113.735Z" fill="white"/>
<line x1="91.1323" y1="93.0502" x2="88.1291" y2="72.0279" stroke="#FFB077" stroke-width="6"/>
<path d="M91.0934 53.6949C105.923 53.6949 120.756 58.8561 132.811 69.1784L113.735 92.6261H68.4744L49.387 69.17C61.4362 58.8533 76.2634 53.6949 91.0934 53.6949ZM91.0934 48.1333C74.5282 48.1333 58.4329 54.1037 45.772 64.946L41.6508 68.4748L45.074 72.6822L64.1614 96.1382L65.8299 98.1876H68.4744H113.735H116.379L118.05 96.1382L137.127 72.6905L140.547 68.4832L136.429 64.9543C123.762 54.1065 107.661 48.1333 91.0934 48.1333Z" fill="#83C166"/>
<path d="M93.3431 53.7922C93.2875 53.7922 93.2318 53.7867 93.1762 53.7867C91.4633 53.7311 89.7503 53.7505 88.0373 53.8284C87.9316 53.834 87.8288 53.8367 87.7259 53.8423V64.7931H93.3431C93.3431 64.7931 93.3431 53.7922 93.3431 53.7922ZM61.5113 72.938L66.3805 70.1628L61.1915 61.1975C59.548 62.0679 57.938 63.0162 56.3585 64.0395L61.5113 72.938ZM73.9748 67.0872L79.3974 65.6384L76.6194 55.4107C74.8007 55.8334 72.996 56.3395 71.2107 56.9262L73.9748 67.0872ZM104.483 55.1743L101.627 65.8053L107.055 67.2374L109.919 56.5953C108.12 56.0419 106.313 55.5692 104.483 55.1743ZM125.014 63.5139C123.42 62.5156 121.796 61.5979 120.139 60.7498L114.663 70.2657L119.544 73.0187L125.014 63.5139Z" fill="#E2EFDD"/>
<path d="M57.7293 128.776H141.153C142.688 128.776 143.934 127.53 143.934 125.995V114.872C143.934 113.337 142.688 112.091 141.153 112.091H57.7293V128.776Z" fill="#FFB077"/>
<path d="M71.6333 112.091H66.0717V123.214H71.6333V112.091Z" fill="#E98D4B"/>
<path d="M82.7565 112.091H77.1949V117.653H82.7565V112.091Z" fill="#E98D4B"/>
<path d="M93.8797 112.091H88.3181V123.214H93.8797V112.091Z" fill="#E98D4B"/>
<path d="M105.003 112.091H99.4413V117.653H105.003V112.091Z" fill="#E98D4B"/>
<path d="M116.126 112.091H110.565V123.214H116.126V112.091Z" fill="#E98D4B"/>
<path d="M138.372 112.091H132.811V123.214H138.372V112.091Z" fill="#E98D4B"/>
<path d="M127.249 112.091H121.688V117.653H127.249V112.091Z" fill="#E98D4B"/>
</svg>
